<?xml version="1.0" encoding="UTF-8" standalone="no"?>
<svg width="41px" height="42px" viewBox="0 0 41 42" version="1.1" xmlns="http://www.w3.org/2000/svg" xmlns:xlink="http://www.w3.org/1999/xlink" xmlns:sketch="http://www.bohemiancoding.com/sketch/ns">
    <!-- Generator: bin/sketchtool 1.4 (305) - http://www.bohemiancoding.com/sketch -->
    <title>facebook copy</title>
    <desc>Created with bin/sketchtool.</desc>
    <defs>
        <rect id="path-1" x="0" y="0" width="40" height="40.9073433" rx="27"></rect>
    </defs>
    <g id="Page-1" stroke="none" stroke-width="1" fill="none" fill-rule="evenodd" sketch:type="MSPage">
        <g id="Artboard" sketch:type="MSArtboardGroup" transform="translate(-453.000000, -3603.000000)">
            <g id="Desktop" sketch:type="MSLayerGroup" transform="translate(0.000000, 49.000000)">
                <g id="08-Get-in-Touch" transform="translate(1.000000, 3456.000000)">
                    <g id="Social-Icons" transform="translate(397.500000, 98.876611)">
                        <g id="facebook-copy" transform="translate(55.000000, 0.000000)">
                            <g id="Rectangle-2">
                                <use fill="#201F20" sketch:type="MSShapeGroup" xlink:href="#path-1"></use>
                                <use fill="#FFFFFF" xlink:href="#path-1"></use>
                            </g>
                            <path d="M27.5993751,24.8459093 L32.7987621,24.8459093 L33.5772013,18.5863711 L27.5993751,18.5863711 L27.5993751,14.5899326 C27.5993751,12.7776502 28.0846632,11.5426813 30.5911358,11.5426813 L33.7879225,11.5411272 L33.7879225,5.94266346 C33.234742,5.86651716 31.3373524,5.69604263 29.1297262,5.69604263 C24.5206881,5.69604263 21.3652662,8.61306824 21.3652662,13.9701948 L21.3652662,18.5863711 L16.1525406,18.5863711 L16.1525406,24.8459093 L21.3652662,24.8459093 L21.3652662,40.9073433 L27.5993751,40.9073433 L27.5993751,24.8459093 Z" id="facebook-path" fill="#212021" sketch:type="MSShapeGroup"></path>
                        </g>
                    </g>
                </g>
            </g>
        </g>
    </g>
</svg>